<?xml version="1.0" standalone="no"?>
<!DOCTYPE svg PUBLIC "-//W3C//DTD SVG 20010904//EN"
 "http://www.w3.org/TR/2001/REC-SVG-20010904/DTD/svg10.dtd">
<svg version="1.0" xmlns="http://www.w3.org/2000/svg"
 width="506.000000pt" height="459.000000pt" viewBox="0 0 506.000000 459.000000"
 preserveAspectRatio="xMidYMid meet">
<metadata>
Created by potrace 1.15, written by Peter Selinger 2001-2017
</metadata>
<g transform="translate(0.000000,459.000000) scale(0.100000,-0.100000)"
fill="#000000" stroke="none">
<path d="M0 3071 l0 -1519 21 -5 c14 -4 18 -10 13 -19 -4 -7 2 -5 14 5 31 28
97 40 156 27 72 -14 215 -17 224 -4 7 11 103 24 226 30 38 1 74 8 79 13 6 6
25 10 42 10 l30 -2 -35 -6 c-34 -7 -33 -7 17 -12 37 -3 54 0 58 9 3 8 34 12
105 12 60 0 100 4 100 10 0 6 11 10 25 10 14 0 25 4 25 9 0 5 10 7 22 3 14 -3
19 -1 14 6 -3 6 -2 13 4 17 5 3 10 -1 10 -9 0 -10 9 -16 25 -16 17 0 25 6 25
18 0 10 3 13 8 6 12 -17 45 -27 39 -11 -4 10 3 12 24 9 16 -2 29 -8 29 -13 0
-5 24 -9 54 -9 60 0 89 -7 80 -21 -3 -5 4 -9 16 -9 12 0 18 -5 15 -10 -3 -5 0
-10 7 -10 7 0 24 -3 37 -7 18 -5 22 -3 16 6 -5 10 -2 11 12 7 12 -4 41 7 84
33 35 21 75 42 89 46 14 4 39 18 56 31 44 32 84 39 84 13 0 -35 69 -221 88
-240 11 -10 22 -24 25 -31 2 -7 7 -10 11 -7 3 3 -17 54 -45 113 -57 121 -69
191 -34 191 14 0 29 -17 51 -59 41 -78 104 -147 176 -197 48 -32 75 -42 146
-55 119 -21 160 -13 215 39 24 23 52 54 62 69 22 35 42 36 57 3 l12 -26 18 30
c11 17 28 33 39 36 11 4 17 11 14 16 -4 5 3 26 14 47 10 20 22 46 26 57 9 29
24 0 26 -50 1 -22 4 -53 8 -70 13 -60 21 4 10 83 -8 55 -8 77 0 80 6 2 8 9 4
15 -7 12 -15 15 131 -48 87 -38 110 -45 117 -34 5 8 7 19 5 24 -2 7 11 11 30
11 41 0 44 -11 6 -24 -16 -6 -20 -11 -10 -11 10 -1 22 -10 28 -21 16 -30 28
-24 24 14 -3 38 5 44 54 41 17 -1 32 1 32 5 0 4 27 12 60 17 33 5 60 6 60 1 0
-4 5 -8 10 -8 6 0 10 7 10 15 0 8 -4 15 -8 15 -5 0 -9 7 -9 15 0 20 23 19 31
-1 3 -9 6 -29 6 -44 0 -16 5 -32 11 -36 7 -4 9 0 5 14 -8 25 2 72 16 72 6 0 7
-7 4 -16 -5 -13 -3 -14 6 -6 9 7 19 6 32 -4 23 -16 66 -19 66 -4 0 12 -21 22
-53 25 -12 1 -25 3 -29 4 -5 0 -8 9 -8 19 1 15 2 15 13 2 17 -21 121 -18 142
4 22 22 9 39 -26 34 -19 -3 -29 0 -29 8 0 7 -6 15 -12 17 -7 3 4 3 25 0 30 -5
37 -2 37 11 0 13 12 16 75 16 60 0 75 -3 75 -15 0 -10 10 -15 29 -15 23 0 31
-6 39 -27 l9 -28 16 30 c13 25 16 26 17 10 5 -96 20 -127 20 -42 0 31 4 58 9
61 5 3 8 -21 6 -54 -3 -45 0 -60 10 -60 16 0 29 35 19 51 -4 7 -3 9 4 5 6 -3
13 -2 17 4 8 13 45 13 45 0 0 -6 11 -8 25 -4 15 4 25 2 25 -5 0 -6 5 -11 10
-11 6 0 10 7 10 15 0 9 9 15 25 15 16 0 25 -6 25 -15 0 -9 9 -15 25 -15 15 0
25 -6 25 -14 0 -14 46 -32 65 -26 6 1 26 7 45 11 31 7 29 8 -12 4 -45 -4 -48
-3 -48 20 0 18 -6 25 -27 28 -16 2 -6 5 23 6 68 2 104 -16 104 -51 0 -26 3
-27 45 -26 43 1 59 11 33 21 -7 3 4 6 25 6 34 1 37 -1 38 -26 1 -16 1 -34 0
-42 -2 -7 2 -10 8 -6 6 3 11 3 11 -2 0 -10 49 -33 72 -33 18 0 42 33 32 43 -3
3 -3 11 1 17 4 7 15 2 30 -15 20 -24 25 -25 44 -14 11 8 21 22 21 33 0 15 3
16 15 6 8 -7 12 -17 8 -23 -3 -5 -1 -7 5 -3 6 3 13 2 16 -3 5 -7 306 -29 329
-23 12 3 8 -26 -5 -31 -7 -3 -1 -6 15 -6 19 -1 27 4 27 15 0 14 3 14 15 4 13
-11 15 152 15 1459 l0 1471 -2530 0 -2530 0 0 -1519z m2361 -188 c9 -8 29 -16
45 -19 16 -3 42 -12 58 -20 16 -8 31 -12 34 -9 3 2 -2 7 -11 11 -30 11 -7 29
34 27 40 -1 72 -24 46 -32 -7 -2 -15 -9 -19 -14 -4 -6 -23 -11 -42 -11 -23 0
-36 -5 -36 -13 0 -7 -9 -13 -20 -13 -28 0 -109 -42 -110 -57 0 -7 8 -28 17
-48 12 -25 23 -35 39 -35 13 0 26 -5 29 -10 5 -8 11 -8 20 0 11 9 12 7 8 -10
-5 -19 -3 -20 22 -10 20 7 31 7 41 -1 8 -6 28 -9 46 -5 21 3 40 0 52 -9 20
-15 60 -11 84 8 9 7 18 5 31 -7 37 -34 19 -107 -74 -311 -8 -16 -19 -50 -24
-74 -13 -62 -25 -70 -57 -38 -27 27 -79 37 -86 17 -2 -6 -21 -4 -50 5 -61 18
-139 18 -206 -1 -31 -9 -67 -12 -87 -8 -31 5 -35 4 -41 -21 -5 -20 -9 -23 -15
-13 -6 10 -9 10 -9 1 0 -23 -15 -13 -32 23 -10 19 -18 45 -18 58 0 13 -8 34
-19 47 -10 13 -19 26 -19 29 0 3 -20 48 -45 100 -48 100 -50 107 -48 155 2 45
15 62 35 46 20 -17 116 -27 116 -12 0 6 12 8 30 5 17 -4 36 -1 44 5 10 8 21 8
40 1 15 -5 29 -10 31 -10 6 0 -1 49 -8 56 -3 3 -50 6 -103 6 -54 0 -102 2
-107 5 -14 8 23 41 60 54 51 17 96 4 140 -40 22 -22 52 -41 70 -44 30 -6 33
-4 43 31 5 20 10 44 10 52 0 17 -49 50 -72 50 -8 0 -25 11 -37 24 l-22 23 38
29 c28 21 47 28 71 26 17 -2 32 -7 32 -13 0 -5 5 -9 11 -9 7 0 9 10 5 26 -7
27 1 26 35 -3z m193 -855 c-7 -31 -11 -58 -13 -83 -2 -16 -61 -38 -110 -41
-25 -1 -65 -5 -88 -9 -31 -6 -43 -4 -43 4 0 9 -13 10 -45 5 -74 -11 -134 23
-135 76 0 24 3 25 58 26 102 1 237 17 244 28 5 7 8 6 8 -4 0 -9 12 -20 28 -26
33 -12 72 4 84 35 12 33 20 24 12 -11z"/>
<path d="M2182 2348 l3 -43 49 3 c34 1 55 -3 67 -14 13 -12 26 -14 46 -9 15 4
52 9 81 12 51 5 52 5 52 38 0 31 -2 33 -42 39 -24 3 -52 6 -63 6 -11 0 -31 0
-45 1 -46 1 -65 0 -97 -7 -22 -4 -33 -2 -33 5 0 6 -5 11 -11 11 -6 0 -9 -17
-7 -42z"/>
<path d="M2407 770 c-162 -29 -299 -93 -398 -187 -111 -105 -179 -225 -223
-397 -26 -99 -34 -186 -17 -186 6 0 13 21 16 48 41 288 172 508 364 610 157
84 391 116 561 77 184 -43 367 -204 439 -385 35 -87 41 -79 10 13 -61 183
-232 338 -432 394 -64 17 -255 25 -320 13z"/>
<path d="M2704 489 c3 -17 6 -59 6 -93 0 -33 4 -66 8 -73 12 -18 131 -21 142
-3 25 40 -5 139 -55 178 -18 14 -42 22 -68 22 -39 0 -39 0 -33 -31z"/>
<path d="M2575 483 c-30 -8 -44 -22 -61 -62 -22 -50 -23 -82 -4 -117 21 -37
55 -42 86 -13 32 30 58 101 49 136 -7 28 -33 64 -44 62 -3 -1 -15 -4 -26 -6z
m39 -35 c40 -57 -3 -161 -64 -156 -16 1 -28 5 -27 8 0 3 -3 16 -7 28 -17 52
23 142 64 142 10 0 26 -10 34 -22z"/>
<path d="M2347 379 c-26 -15 -49 -67 -49 -115 -2 -106 84 -129 132 -34 38 75
18 160 -38 160 -15 0 -35 -5 -45 -11z"/>
</g>
</svg>
